<svg xmlns="http://www.w3.org/2000/svg" viewBox="0 0 18 18"><defs><style>.a{fill:none;}</style></defs><g transform="translate(83 -7842)"><rect class="a" width="18" height="18" transform="translate(-83 7842)"/><path d="M18,16.415l-3.736-3.736a7.751,7.751,0,0,0,1.585-4.755A7.876,7.876,0,0,0,7.925,0,7.876,7.876,0,0,0,0,7.925a7.876,7.876,0,0,0,7.925,7.925,7.751,7.751,0,0,0,4.755-1.585L16.415,18ZM2.264,7.925a5.605,5.605,0,0,1,5.66-5.66,5.605,5.605,0,0,1,5.66,5.66,5.605,5.605,0,0,1-5.66,5.66A5.605,5.605,0,0,1,2.264,7.925Z" transform="translate(-83 7842)"/></g></svg>